<svg width="35" height="35" viewBox="0 0 35 35" fill="none" xmlns="http://www.w3.org/2000/svg">
<g id="material-symbols:star-rounded">
<path id="Vector" d="M17.5 26.651L11.4479 30.2969C11.1805 30.467 10.901 30.5399 10.6094 30.5156C10.3177 30.4913 10.0625 30.3941 9.84374 30.224C9.62499 30.0538 9.45485 29.8409 9.33332 29.5852C9.2118 29.3295 9.18749 29.0442 9.26041 28.7292L10.8646 21.8385L5.5052 17.2083C5.26214 16.9896 5.11048 16.7402 5.0502 16.4602C4.98992 16.1802 5.00791 15.907 5.10416 15.6406C5.20138 15.3733 5.34721 15.1545 5.54166 14.9844C5.7361 14.8142 6.00346 14.7049 6.34374 14.6563L13.4167 14.0365L16.151 7.54688C16.2726 7.25521 16.4612 7.03646 16.7169 6.89063C16.9726 6.74479 17.2336 6.67188 17.5 6.67188C17.7674 6.67188 18.0284 6.74479 18.2831 6.89063C18.5378 7.03646 18.7265 7.25521 18.849 7.54688L21.5833 14.0365L28.6562 14.6563C28.9965 14.7049 29.2639 14.8142 29.4583 14.9844C29.6528 15.1545 29.7986 15.3733 29.8958 15.6406C29.993 15.908 30.0115 16.1817 29.9512 16.4617C29.891 16.7417 29.7388 16.9906 29.4948 17.2083L24.1354 21.8385L25.7396 28.7292C25.8125 29.0451 25.7882 29.331 25.6667 29.5867C25.5451 29.8424 25.375 30.0548 25.1562 30.224C24.9375 30.3941 24.6823 30.4913 24.3906 30.5156C24.099 30.5399 23.8194 30.467 23.5521 30.2969L17.5 26.651Z" fill="#FC7613"/>
</g>
</svg>
